<svg id="svg" version="1.1" viewBox="0 0 300 300" width="300" height="300" xmlns="http://www.w3.org/2000/svg"><svg xmlns="http://www.w3.org/2000/svg"><defs><clipPath id="clip-1"><rect x="0" y="0" transform="scale(0.14648,0.14648)" width="2048" height="2048" fill="none"/></clipPath></defs><g clip-path="url(#clip-1)" fill="none" fill-rule="nonzero" stroke="none" stroke-width="1" stroke-linecap="butt" stroke-linejoin="miter" stroke-miterlimit="10" stroke-dasharray="" stroke-dashoffset="0" font-family="none" font-weight="none" font-size="none" text-anchor="none" style="mix-blend-mode: normal"><path d="M150.05566,0.19616c1.23633,0.58528 3.32959,1.85796 4.59229,2.57119c3.56982,2.01813 7.11914,4.06925 10.65088,6.15311l30.08643,17.5686l53.92676,31.36362c8.26172,4.84365 17.77881,10.01792 25.79297,15.18091l0.104,94.94883l0.03369,37.02246c-0.03662,7.13818 0,14.27637 0.10693,21.41309c-0.93457,0.62256 -2.07275,1.27734 -3.04248,1.85303c-0.47168,0.27539 -1.03271,0.57568 -1.45605,0.9082c-2.03467,1.01953 -4.66553,2.80371 -6.68262,3.9873l-13.00488,7.60107l-40.09863,23.65137l-35.71875,21.0791l-15.86719,9.29736c-2.58545,1.51758 -6.39404,3.58447 -8.75537,5.20459h-1.49854c-6.07764,-3.92139 -13.0686,-7.78125 -19.34019,-11.48145c-11.91738,-7.13965 -23.8856,-14.19434 -35.90347,-21.1626c-23.04023,-13.51465 -46.05337,-27.70459 -69.31318,-40.77246c-0.23159,-20.78174 -0.03369,-41.85937 -0.03926,-62.67334l0.02124,-90.7708c9.34937,-5.72915 19.52373,-11.38257 29.00874,-16.9251l49.54072,-28.96523l31.20381,-18.14542c5.22979,-3.02222 10.27852,-6.13305 15.65215,-8.90745z" fill="#59a755"/><path d="M149.90332,10.52036c0.55811,0.06324 21.37793,12.43315 24.10254,14.02441l92.15479,53.82524l0.01172,142.80088c-7.46777,4.20117 -15.21826,8.9458 -22.6333,13.32715l-38.76562,22.875l-36.17285,21.36914c-6.05127,3.57275 -12.48633,7.21289 -18.41748,10.88672c-0.62109,-0.03223 -9.15527,-5.25732 -10.28877,-5.92236l-24.02871,-14.17822l-82.02231,-48.39551l-0.00234,-142.81157c4.52739,-2.50137 9.19482,-5.3168 13.67754,-7.93872l23.84868,-13.9415z" fill="#ffffff"/><path d="M128.12358,107.45757c2.07158,1.19897 4.996,2.82363 6.93721,4.15957c0.13008,2.8002 0.00703,5.44043 0.07192,8.18672c-1.75825,1.0897 -5.2793,3.32666 -7.08735,4.13159l-0.51636,-0.21343c-0.36313,0.40591 -2.20869,10.18564 -2.57417,11.75508c2.28003,1.67681 2.70513,3.17666 1.63096,5.86465c1.52681,1.53062 3.13799,2.92939 4.62378,4.41768c2.221,-2.78906 5.13472,-6.63091 7.48037,-9.1998c-1.01133,-1.42925 -1.48052,-2.75259 -1.13511,-4.5438c0.29663,-1.52271 1.22241,-2.84941 2.54912,-3.65317c0.58667,-0.36123 1.17378,-0.55049 1.83398,-0.73198c0.8269,-0.26367 1.46836,-0.23774 2.31079,-0.14385c1.4146,0.58711 2.09941,0.85562 3.17754,2.04082c0.26953,0.52632 0.71924,1.33843 0.93457,1.85962c0.45264,1.76836 0.29004,2.59087 -0.36182,4.26372c1.89551,1.72559 3.84814,3.38672 5.85498,4.98047c1.70801,-0.83218 3.68848,-1.85713 5.40527,-2.61196c-0.33984,2.56978 -0.81299,5.58926 -0.79834,8.13149c1.58789,-0.58447 6.5127,-2.93203 7.4165,-3.11821c-0.13184,2.06631 -0.42773,5.93159 -0.75732,7.98091c-1.20557,0.65625 -2.42725,1.28174 -3.66504,1.875l2.89014,11.89307c1.75342,-1.85889 3.71484,-3.8584 5.37451,-5.77734c0.646,0.49072 1.09424,0.88477 1.84424,1.2041c-6.45557,7.23193 -13.78271,14.72168 -20.48437,21.75732l-0.01758,37.33447l0.01758,11.95313c0.01465,4.68896 0.2915,6.44385 -1.08984,10.94531c-0.27393,-1.23193 -0.88184,-2.98975 -0.9668,-4.2085c-0.17285,-2.47852 -0.09961,-5.25439 -0.09814,-7.75195l0.01318,-14.7627c0.00439,-11.45068 -0.09521,-23.04053 0.03076,-34.48096c4.229,-4.43555 9.63281,-9.78223 13.57324,-14.30273c-1.11035,-3.73096 -2.19873,-8.9458 -3.15381,-12.84668l-1.66992,0.66211c-2.07568,-1.29785 -4.88965,-3.19336 -6.81592,-4.64062c0.22559,-2.6543 0.44531,-5.61108 0.82471,-8.22656c-1.75342,-1.3481 -3.47168,-2.7397 -5.15625,-4.17363c-0.60952,0.38437 -1.2583,0.73389 -1.88848,1.08647c0.30088,4.39365 1.14785,10.03052 1.62744,14.56567c1.83428,0.94189 5.43047,3.06006 7.18828,4.23926c0.05713,2.66162 0.14355,5.4126 0.12744,8.07275c-1.74023,1.05176 -5.62646,3.51709 -7.28936,4.2583c-1.0188,-0.57422 -2.73018,-1.48828 -3.60278,-2.17676c-0.3438,-0.2666 -1.58774,-0.90381 -1.97871,-1.08545c-2.75142,3.74268 -5.77808,7.52197 -8.65825,11.16797c-1.79297,-0.7998 -2.52788,-0.71045 -4.39775,-0.39404c-1.57896,-2.4126 -3.37295,-5.08008 -4.87412,-7.53516c0.6186,-0.35303 2.11626,-1.15137 2.52041,-1.62598c-1.72222,-1.16602 -5.33862,-3.12012 -7.27676,-4.23779c-2.40952,1.41211 -4.85801,2.76855 -7.23457,4.23633l-0.02139,-8.19727c1.19839,-0.81006 3.23438,-1.92627 4.53823,-2.69971c-0.61479,-1.91162 -1.05176,-4.16895 -1.59038,-6.13037c-1.53428,-5.59116 -2.73428,-11.75771 -4.40508,-17.27827c-1.60664,-0.69258 -3.18984,-1.59609 -4.68311,-2.50518c-0.02754,-1.86226 0.00996,-3.80566 0.02051,-5.67422c1.14243,-0.7979 3.37632,-2.02104 4.60752,-2.66074c1.49121,0.7188 3.33428,1.85127 4.74858,2.71245c-0.03149,1.72749 -0.05332,3.45498 -0.06563,5.18262c2.14131,1.63301 4.26226,3.29268 6.36255,4.97827c1.04136,-0.46465 1.28364,-0.5124 2.40864,-0.74019l2.65591,-12.53379c-1.46191,-0.91772 -3.05229,-1.8145 -4.55024,-2.68945c0.00601,-2.68696 -0.02666,-5.48687 0.06592,-8.16343c2.19741,-1.32378 4.94941,-3.0438 7.19795,-4.18125z" fill="#59a755"/><path d="M131.39473,148.96143l5.25469,5.01123c0.73154,0.69727 2.37539,2.1709 2.91943,2.93115c-0.06621,0.09814 -0.45322,0.7002 -0.45264,0.75c0.02725,2.46094 0.03882,5.37012 0.04702,7.77539c0.56016,0.37939 0.9876,0.68115 1.59141,0.99756c-2.75142,3.74268 -5.77808,7.52197 -8.65825,11.16797c-1.79297,-0.7998 -2.52788,-0.71045 -4.39775,-0.39404c-1.57896,-2.4126 -3.37295,-5.08008 -4.87412,-7.53516c0.6186,-0.35303 2.11626,-1.15137 2.52041,-1.62598l-0.07793,-8.1123c-0.55386,-0.3999 -1.19458,-0.8042 -1.76953,-1.18506c2.65781,-3.24023 5.29028,-6.49951 7.89727,-9.78076z" fill="#ffffff"/><path d="M146.30977,153.11865c1.83428,0.94189 5.43047,3.06006 7.18828,4.23926c0.05713,2.66162 0.14355,5.4126 0.12744,8.07275c-1.74023,1.05176 -5.62646,3.51709 -7.28936,4.2583c-1.0188,-0.57422 -2.73018,-1.48828 -3.60278,-2.17676c-0.3438,-0.2666 -1.58774,-0.90381 -1.97871,-1.08545c-0.60381,-0.31641 -1.03125,-0.61816 -1.59141,-0.99756c2.4895,-1.35205 4.93623,-2.78027 7.33726,-4.28467c0.00586,-2.67627 -0.05742,-5.35254 -0.19072,-8.02588z" fill="#458e52"/><path d="M128.12358,107.45757c2.07158,1.19897 4.996,2.82363 6.93721,4.15957c0.13008,2.8002 0.00703,5.44043 0.07192,8.18672c-1.75825,1.0897 -5.2793,3.32666 -7.08735,4.13159c0.04937,-2.62266 -0.02988,-5.53359 -0.04453,-8.17822c-2.3458,-1.39424 -4.70435,-2.76709 -7.0752,-4.11841c2.19741,-1.32378 4.94941,-3.0438 7.19795,-4.18125z" fill="#9cbf54"/><path d="M112.33828,132.3917c0.74165,0.40503 5.71816,4.3418 6.71807,5.11055c-1.25625,4.28672 1.82461,7.07534 5.98535,5.36338c1.59507,1.50264 3.17754,3.0186 4.74712,4.54746c-1.44126,1.84277 -2.90947,3.66211 -4.40435,5.46094l-3.82236,4.83545c-0.98892,-0.55225 -2.42695,-1.49707 -3.50522,-1.98926c-0.00718,-0.00293 -0.64468,0.12451 -0.72993,0.14209c-0.39023,-0.64307 -5.3833,-21.09961 -5.70264,-22.68091c0.18867,-0.51621 0.19336,-0.3917 0.71396,-0.7897z" fill="#ffffff"/><path d="M140.25952,138.1166c0.47651,0.20654 1.59492,0.52119 2.13486,0.69053c0.66592,5.10747 1.16807,10.38281 1.91528,15.45996c-0.82866,0.47021 -1.67549,1.01074 -2.48994,1.51318l-2.49053,-2.31885c-2.18921,-1.97754 -4.40464,-4.14551 -6.55151,-6.18311c2.16606,-2.76709 5.20356,-6.56807 7.48184,-9.16172z" fill="#ffffff"/><path d="M137.90962,216.62549l0.51313,0.07471c0.35771,0.25195 0.54155,0.48779 0.68291,0.90674c1.34224,3.98145 2.46855,8.0625 3.67573,12.07764l7.21714,24.12891c0.99609,-2.95605 1.90576,-6.2417 2.81104,-9.26221l4.92041,-16.37695c0.67236,-2.23682 2.84766,-10.30078 3.92139,-11.43311c2.04785,-0.41162 3.17139,3.39844 3.77783,4.87793l2.66748,6.50391c1.80176,4.40039 3.65625,8.77441 5.48145,13.16309c0.57861,1.3916 0.52881,2.40234 0.05713,3.82031c-0.61377,1.84717 -1.19531,3.7002 -1.74609,5.56934c-0.82031,2.48438 -1.50732,5.03027 -2.32764,7.51025c-0.75146,2.04932 -1.03711,4.58057 -2.75977,6.07764c-5.01855,4.36377 -9.97705,8.80957 -15.03223,13.12354c-1.31543,1.12354 -2.79346,0.5625 -3.99902,-0.45703c-3.93516,-3.33398 -7.75166,-6.85693 -11.67773,-10.2085c-1.07725,-0.92139 -2.44424,-2.03613 -3.38701,-3.07324l-0.18267,-0.20361c-0.4894,-0.56104 -0.84067,-1.49854 -1.14683,-2.60889c-1.5709,-5.69678 -4.34604,-12.5127 -5.29761,-18.20068c-0.05845,-0.34863 1.9853,-5.13574 2.1375,-5.50049l3.79307,-9.06885c1.34648,-3.23291 2.67612,-6.91992 4.25581,-10.03271c0.3665,-0.72217 0.94175,-1.05615 1.64458,-1.40771z" fill="#275d35"/><path d="M137.44219,223.92188c1.35894,3.46143 3.00835,9.72803 4.15093,13.49121c1.8041,5.94141 3.72949,12.22852 5.3688,18.20068c-1.51479,-1.125 -3.01333,-2.27051 -4.49546,-3.43652c-0.52925,-0.33252 -1.26284,-0.9082 -1.77393,-1.31104c-3.55825,-2.80225 -7.62949,-5.34961 -11.03804,-8.3042c2.33789,-5.6543 5.19419,-13.27441 7.7877,-18.64014z" fill="#59a755"/><path d="M162.58301,223.91309c0.75,1.05029 3.60352,8.44043 4.30371,10.15723c0.98877,2.42432 2.64844,6.14063 3.5083,8.54883c-3.38672,2.85645 -8.88721,6.71338 -12.56543,9.40723c-1.54395,1.21143 -3.11133,2.39063 -4.70068,3.5376c1.00342,-4.03418 2.62354,-8.98389 3.82764,-13.00488c1.82227,-6.23145 3.69727,-12.44678 5.62646,-18.646z" fill="#59a755"/><path d="M168.96973,247.83545l0.12598,0.15088c-0.28271,1.61133 -3.66211,12.51709 -4.34619,13.53223c-0.93604,1.38428 -2.86084,2.66016 -4.14404,3.77197c-2.89307,2.48291 -5.77002,4.98486 -8.63086,7.50586l-0.13916,-0.1333c-0.13184,-0.76172 -0.08936,-2.89307 -0.09375,-3.81006l0.00879,-7.8999c1.72998,-1.52197 4.38867,-3.41748 6.26953,-4.83691z" fill="#2a6f43"/><path d="M130.96084,247.93506c0.92373,0.49219 2.8645,2.14893 3.87568,2.84326c4.44902,3.05127 9.06108,7.07373 13.49209,10.0415l-0.0542,11.77734l-0.15381,0.11572c-0.56982,-0.31787 -1.4502,-1.24805 -1.99541,-1.72559l-4.3355,-3.75879c-1.6292,-1.43408 -6.45015,-5.07861 -7.02642,-6.83643c-1.29712,-3.95801 -2.67495,-8.44336 -3.80244,-12.45703z" fill="#2a6f43"/><path d="M178.58643,99.55781c0.55957,0.34028 1.23779,0.77944 1.80176,1.0856c-2.6792,5.03042 -6.42773,10.61074 -9.33545,15.64849c1.98926,2.67451 2.17676,4.29917 0.69873,7.30913c1.43115,1.73936 3.65186,4.1064 5.23828,5.75713c2.59424,-2.09824 5.01563,-4.33564 7.58643,-6.44414c-0.24316,-1.25552 -0.12598,-5.35518 -0.104,-6.81431c1.69775,-1.06172 4.04004,-2.47822 5.80664,-3.38862l3.29736,1.91792c0.63721,0.38145 1.26709,0.77183 1.89404,1.1707c0.17578,0.07822 0.35889,0.17769 0.5376,0.21431c0.31494,1.12236 0.14795,5.42886 0.14502,6.76479c-1.45752,0.93193 -4.35059,2.67979 -5.89307,3.35039l-0.15234,0.05391c-0.20801,-0.60059 -1.48535,-1.10361 -2.06104,-1.22578l-1.56738,-0.90425c-2.59717,2.03833 -5.52832,5.10264 -8.05225,6.95889c-0.65918,0.50654 -0.98291,0.95083 -1.50146,1.5854c-0.104,0.0063 -0.20801,0.01245 -0.31201,0.01875c-2.47998,2.57944 -9.07471,7.54585 -11.15479,9.81108c0.08789,0.18823 0.42041,0.60776 0.41895,0.60557c-0.90381,0.18618 -5.82861,2.53374 -7.4165,3.11821c-0.01465,-2.54224 0.4585,-5.56172 0.79834,-8.13149c-1.7168,0.75483 -3.69727,1.77979 -5.40527,2.61196c-2.00684,-1.59375 -3.95947,-3.25488 -5.85498,-4.98047c0.65186,-1.67285 0.81445,-2.49536 0.36182,-4.26372c-0.21533,-0.52119 -0.66504,-1.3333 -0.93457,-1.85962c4.19824,-2.596 9.91846,-5.17529 14.34814,-7.59668c-0.24023,-2.18804 -0.08936,-2.77471 0.79541,-4.77012c0.55664,-0.52749 1.10742,-1.05996 1.65381,-1.59741c0.12891,-0.00029 0.75293,-0.25737 0.90234,-0.31436c1.5835,-0.60249 2.45654,-0.50098 4.02832,-0.13975c2.12549,-3.47666 4.22314,-6.96973 6.29443,-10.47891c0.97705,-1.62598 2.05811,-3.53364 3.1377,-5.07261z" fill="#9cbf54"/><path d="M162.76611,123.88213c0.48633,0.41147 1.19531,1.05132 1.70361,1.39087l-2.69678,8.47661c-0.3252,1.03521 -1.26855,4.24058 -1.74463,5.02749c-0.43652,-0.33193 -0.44092,-0.35303 -0.76904,-0.75762c-1.7168,0.75483 -3.69727,1.77979 -5.40527,2.61196c-2.00684,-1.59375 -3.95947,-3.25488 -5.85498,-4.98047c0.65186,-1.67285 0.81445,-2.49536 0.36182,-4.26372c4.45459,-2.05825 9.99316,-5.17207 14.40527,-7.50513z" fill="#ffffff"/><path d="M190.27295,119.42783c1.13232,-0.60205 2.24561,-1.23735 3.33838,-1.90488c0.83643,-0.51899 1.50586,-1.08794 2.39648,-1.50894c0.31494,1.12236 0.14795,5.42886 0.14502,6.76479c-1.45752,0.93193 -4.35059,2.67979 -5.89307,3.35039c0.09814,-2.20386 0.03955,-4.48872 0.01318,-6.70137z" fill="#59a755"/><path d="M170.10352,125.30933c0.479,0.26411 4.64063,4.89668 5.25293,5.55601c-2.68359,2.56113 -6.65332,5.77661 -9.51416,8.23066c-0.70459,0.66035 -1.53662,1.44639 -2.34668,1.9563l-1.3418,-1.01147c1.30664,-4.61763 3.00439,-9.35698 4.35645,-14.02485c1.48389,-0.08145 2.20605,-0.1957 3.59326,-0.70664z" fill="#ffffff"/><path d="M88.16221,156.18457l5.72593,-3.37646l5.76694,3.33545c0.23892,0.66943 0.11235,5.7876 0.10122,6.78662c-0.59341,0.36182 -1.17583,0.73096 -1.79531,1.0459c1.71138,2.95166 3.57686,5.98242 5.23564,8.93701c3.09565,-0.1333 4.54658,0.74854 5.32163,3.86719l15.92461,3.68555c0.49585,-0.90234 0.70518,-1.22168 1.40054,-2.00391c-1.48667,-2.31152 -3.45352,-5.57959 -5.07085,-7.72266c-0.93735,0.50684 -1.88057,1.02686 -2.82305,1.52051c-0.97192,-0.55664 -6.59517,-3.72656 -7.11592,-4.22168c2.37656,-1.46777 4.82505,-2.82422 7.23457,-4.23633c1.93813,1.11768 5.55454,3.07178 7.27676,4.23779c-0.40415,0.47461 -1.90181,1.27295 -2.52041,1.62598c1.50117,2.45508 3.29517,5.12256 4.87412,7.53516c1.86987,-0.31641 2.60479,-0.40576 4.39775,0.39404c2.88018,-3.646 5.90684,-7.42529 8.65825,-11.16797c0.39097,0.18164 1.63491,0.81885 1.97871,1.08545c-2.91973,3.54199 -5.82334,8.0376 -8.91577,11.36426c1.64004,2.4126 1.8167,4.11182 0.41514,6.72949l7.13789,7.13672c0.95684,0.95361 2.9625,2.82129 3.65815,3.83643l0.00791,28.48975c-0.59868,-1.86914 -1.69673,-5.09473 -2.1022,-6.90234c-0.29575,-1.31836 -0.16802,-5.85937 -0.16406,-7.4751l0.03384,-13.33301c-3.16348,-3.32227 -6.87495,-6.86279 -10.13862,-10.14111c-4.49678,2.14014 -7.87236,0.2168 -8.64155,-4.63916c-5.25264,-1.25977 -10.74404,-2.4375 -16.02656,-3.60352c-0.77168,1.12354 -1.65469,1.89844 -3.04453,2.1665c-1.12266,0.21387 -2.28457,-0.03369 -3.22207,-0.68701c-0.91802,-0.6416 -1.52227,-1.64062 -1.66377,-2.75098c-0.19673,-1.50439 0.33076,-2.55908 1.23311,-3.68408c-1.83091,-2.91211 -3.45718,-6.02783 -5.32983,-8.94727l-1.94722,1.17773c-1.55698,-0.73096 -4.33564,-2.4624 -5.87051,-3.38232c0.02886,-2.22656 0.03193,-4.45459 0.00952,-6.68262z" fill="#2a6f43"/><path d="M88.16221,156.18457l5.72593,-3.37646l5.76694,3.33545c-1.67944,1.07666 -4.25903,2.52979 -5.73779,3.62549c-0.01743,2.22656 0.10371,4.33154 0.10591,6.48047c-1.55698,-0.73096 -4.33564,-2.4624 -5.87051,-3.38232c0.02886,-2.22656 0.03193,-4.45459 0.00952,-6.68262z" fill="#458e52"/><path d="M186.479,124.05308l1.56738,0.90425c0.57568,0.12217 1.85303,0.6252 2.06104,1.22578c-0.73242,3.06797 -1.19824,6.23555 -1.96289,9.28447c0.74268,0.50112 1.4707,0.97134 2.16797,1.5353c4.34326,-2.2667 9.08057,-5.09927 13.38867,-7.20747c-0.16406,-1.40801 -0.09229,-2.54297 0.86719,-3.69639c0.72949,-0.87686 1.78125,-1.42104 2.91943,-1.50879c1.23047,-0.09478 2.44336,0.33721 3.33691,1.18857c3.37793,3.25049 -0.79541,9.79219 -6.08057,5.96309c-4.42383,2.40674 -8.90332,4.91968 -13.34326,7.26782c0.21094,2.15303 0.06445,3.25063 -1.14697,5.12563l6.15088,7.85098c0.9082,-0.48486 1.80908,-0.98291 2.70264,-1.49414c1.93066,1.10596 3.87598,2.23975 5.81836,3.31934l0.00586,6.68408c-0.79395,0.47168 -5.44482,3.27979 -5.91797,3.33545l-3.62695,-2.0083c-0.47461,-0.64307 -1.08398,-0.91846 -1.83252,-1.17041c-0.42041,-0.68262 -0.22412,-5.63379 -0.20947,-6.68115l1.125,-0.78955l-6.02197,-7.63315c-1.74609,0.78296 -3.71484,0.80596 -5.39795,-0.16011c-1.23926,-0.72642 -2.13281,-1.92056 -2.48145,-3.31348c-0.4585,-1.78945 0.02344,-3.13315 0.91846,-4.63228c-1.39746,-1.32041 -3.21094,-3.39258 -4.56152,-4.84526c0.51855,-0.63457 0.84229,-1.07886 1.50146,-1.5854c2.52393,-1.85625 5.45508,-4.92056 8.05225,-6.95889z" fill="#59a755"/><path d="M186.479,124.05308l1.56738,0.90425c-0.67236,2.91489 -1.49854,7.09058 -1.93652,10.04839c-1.12646,0.26558 -1.99658,0.47651 -3.05127,0.97793c-1.55273,-1.64824 -3.09814,-3.30557 -4.63184,-4.97168c2.52393,-1.85625 5.45508,-4.92056 8.05225,-6.95889z" fill="#ffffff"/><path d="M193.34473,153.97119c1.77832,1.04736 3.99023,2.25879 5.70557,3.34863c-0.00732,1.91748 0.07178,4.66553 -0.03662,6.51123l-3.62695,-2.0083c-0.47461,-0.64307 -1.08398,-0.91846 -1.83252,-1.17041c-0.42041,-0.68262 -0.22412,-5.63379 -0.20947,-6.68115z" fill="#458e52"/><path d="M182.74951,164.35254l4.64795,2.66016c0.42627,0.36035 1.37988,1.18213 1.9292,1.16602l0.57275,0.34277c0.22559,0.57568 0.11426,7.03125 0.10986,8.23242c-0.93164,0.54639 -6.56982,3.97266 -7.2832,4.14551l-4.29785,-2.51221c-2.54004,2.40527 -5.25,5.2998 -7.75488,7.81494l-13.4165,13.48389c0.03516,3.69873 0.05127,7.39893 0.04834,11.09766c0.00293,1.6582 0.11426,6.02197 -0.20654,7.38867c-0.44971,1.90576 -1.50293,5.07715 -2.09912,7.02979c0.20361,-3.97705 0.08057,-8.89453 0.07764,-12.94629l0.00146,-23.28809c3.10547,-3.39258 6.73828,-7.26709 10.02246,-10.45752c-0.41455,-1.12354 -0.7207,-1.88965 -0.4834,-3.12744c0.20654,-1.10742 0.85693,-2.08154 1.80029,-2.69678c0.96826,-0.63281 2.15332,-0.83936 3.27832,-0.57422c2.32471,0.54346 3.62988,3.0249 2.98828,5.28076c-0.30615,1.10156 -1.05908,2.02588 -2.07568,2.54736c-1.40039,0.71924 -2.65723,0.44238 -4.04883,0.01025c-2.58252,3.10547 -6.44531,6.85254 -9.28857,9.93896c0.04395,2.17676 0.03369,4.40186 0.04834,6.58301c6.40283,-6.23584 12.8335,-12.93164 19.23193,-19.26562l-0.97266,-0.66064l0.00293,-7.91895c2.40234,-1.40039 4.79297,-2.82568 7.16748,-4.27441z" fill="#2a6f43"/><path d="M189.89941,168.52148c0.22559,0.57568 0.11426,7.03125 0.10986,8.23242c-0.93164,0.54639 -6.56982,3.97266 -7.2832,4.14551l0.06152,-8.14014c2.18408,-1.32568 4.89697,-3.05566 7.11182,-4.23779z" fill="#458e52"/><path d="M214.46484,57.7604l2.90039,0.01772l0.01758,23.53828l-2.63672,0.01523l-0.0835,-1.67212c-2.45508,2.34185 -4.95264,2.61636 -8.01123,1.16353c-0.25928,-0.19043 -0.59326,-0.42422 -0.83057,-0.63516c-4.57178,-4.05688 -3.29736,-15.56309 3.95508,-15.74209c1.9834,-0.04907 3.30176,0.60557 4.67725,1.92656c-0.02051,-2.87065 -0.01611,-5.74131 0.01172,-8.61196z" fill="#275d35"/><path d="M209.86377,66.95786c2.23389,-0.12847 3.37793,0.49116 4.5498,2.36777c0.06885,1.82666 0.07471,3.67324 0.08643,5.50078c0.01758,2.73677 -1.17334,3.94087 -3.76758,4.40083c-2.20605,-0.09741 -3.62842,-1.09893 -4.21143,-3.27393c-0.89355,-3.32607 -0.53467,-7.92773 3.34277,-8.99546z" fill="#ffffff"/><path d="M113.09487,64.61865c2.92485,-0.30586 4.44902,0.00571 6.23584,2.41714c0.09771,-0.11016 0.19644,-0.21929 0.29619,-0.32739c1.4001,-1.50967 2.67085,-2.08945 4.68838,-2.17573c6.502,-0.27832 6.07471,5.50825 5.97642,10.14272c-0.04526,2.13486 -0.01948,4.50894 -0.01904,6.67559l-2.90977,-0.02036c0.05845,-3.87275 0.11191,-7.87632 -0.12803,-11.73618c-0.17725,-2.97217 -4.55347,-3.36094 -6.1875,-1.59697c-1.58862,1.71475 -1.09204,6.07983 -1.0689,8.29922l0.00659,5.05063l-2.94917,-0.0123l0.03135,-7.22197c0.00938,-3.121 0.56836,-7.85332 -4.37607,-7.09863c-1.41621,0.21606 -2.14468,0.94409 -2.97188,2.06602c-0.07822,4.00547 -0.0104,8.23403 -0.01128,12.25708l-2.95269,0.01055l-0.00176,-16.52168l2.73164,0.02827l0.04058,1.75796c1.32759,-1.23237 1.87837,-1.56973 3.56909,-1.99395z" fill="#275d35"/><path d="M175.80615,146.19639c1.92334,1.09365 5.28662,2.90713 7.01953,4.1874l0.03516,7.99072c-2.30273,1.44727 -4.64209,2.83301 -7.01953,4.1543c-1.3374,-0.59326 -2.87402,-1.78271 -4.27734,-2.32031c-0.75,-0.31934 -1.19824,-0.71338 -1.84424,-1.2041l-1.09131,-0.70312l-0.01465,-7.87061c2.16943,-1.38428 4.93359,-2.88867 7.19238,-4.23428z" fill="#458e52"/><path d="M182.82568,150.38379l0.03516,7.99072c-2.30273,1.44727 -4.64209,2.83301 -7.01953,4.1543c0.08643,-2.71582 0.0791,-5.43457 -0.02197,-8.15039c1.68311,-1.03564 5.31006,-3.16113 7.00635,-3.99463z" fill="#59a755"/><path d="M175.33008,64.61982c0.3208,-0.03589 0.64307,-0.06138 0.9668,-0.07646c6.33398,-0.29912 7.34326,4.38926 7.43701,9.4062l-11.51367,0.0085c0.81885,4.79868 4.6333,7.24658 8.68652,3.90396l0.87451,-0.9416c0.59912,0.49307 1.19531,0.98965 1.78711,1.49004c-0.99316,1.29229 -2.04639,2.32969 -3.64014,2.85542c-4.10303,1.35308 -9.11279,-0.42993 -10.229,-4.94238c-1.21143,-4.90298 0.13623,-10.29492 5.63086,-11.70366z" fill="#275d35"/><path d="M175.82227,66.97354c3.62402,-0.24609 4.5293,1.27969 5.0332,4.62935l-3.42627,0.00601c-1.71533,0.00322 -3.43066,-0.01011 -5.14453,-0.04014c0.63428,-2.53345 1.07959,-3.62886 3.5376,-4.59521z" fill="#ffffff"/><path d="M193.59375,64.50864c6.00293,0.24771 7.11035,4.36523 7.09131,9.4418c-3.83936,-0.02197 -7.68018,-0.01787 -11.521,0.0123c0.8042,5.69297 5.58398,7.06772 9.56836,3.03647l1.72119,1.31016c-0.19629,0.29224 -0.3999,0.5792 -0.61084,0.8603c-2.32764,3.03999 -8.06396,3.37808 -10.72705,0.90264c-5.18408,-4.8186 -3.44971,-14.99458 4.47803,-15.56367z" fill="#275d35"/><path d="M192.65479,66.9769c3.76172,-0.32285 4.55713,1.29976 5.17822,4.63491l-2.97217,-0.0022l-5.61914,-0.02124c0.52295,-2.48232 1.02539,-3.61846 3.41309,-4.61147z" fill="#ffffff"/><path d="M140.92251,64.5145c5.98667,0.20742 7.15415,4.35864 7.08823,9.43374c-3.82017,-0.02021 -7.64048,-0.01875 -11.46064,0.00454c0.71235,5.63262 5.72036,7.20996 9.49146,3.07061c0.59663,0.42729 1.18696,0.86572 1.76704,1.31484c-0.14795,0.21855 -0.30029,0.43477 -0.45703,0.64834c-3.85034,5.22964 -13.42603,2.59614 -13.65117,-4.47744c-0.16406,-5.15361 1.35952,-9.54829 7.22212,-9.99463z" fill="#275d35"/><path d="M139.94268,66.97573c3.74619,-0.35054 4.61499,1.25098 5.26846,4.63564l-3.19453,0.00029l-5.44834,-0.02051c0.53364,-2.39004 1.11577,-3.60513 3.37441,-4.61543z" fill="#ffffff"/><path d="M157.25977,58.77451c3.29004,-0.27554 6.54639,0.25854 8.44043,3.3769c0.45557,0.74824 1.03711,2.36616 0.81152,3.23218c-0.53174,0.17695 -2.17529,0.11045 -2.81689,0.1062c-0.4585,-3.00586 -1.64502,-4.08589 -4.77686,-4.30649c-2.30859,-0.16245 -4.93652,1.07271 -4.9043,3.68613c0.0293,2.41538 4.15137,3.44854 5.92676,4.03857c3.95068,1.13042 7.74902,3.51563 6.56543,8.26802c-0.83936,3.36577 -4.06201,4.31235 -7.06934,4.48652c-4.5542,0.14414 -8.64697,-1.82241 -9.04834,-6.86382l2.93848,-0.03208c0.2373,1.3002 0.53174,2.34243 1.61719,3.24023c1.73291,1.58994 6.74121,1.72954 8.10352,-0.42627c2.37891,-3.76626 -2.01123,-5.43076 -4.84424,-6.20244c-1.59375,-0.43359 -3.0249,-1.04062 -4.33154,-1.81128c-3.0542,-1.80205 -3.70166,-5.14585 -1.7959,-8.05488c1.16748,-1.76353 3.17871,-2.37012 5.18408,-2.7375z" fill="#275d35"/><path d="M182.46387,88.34897c1.94531,1.05381 3.90381,2.25059 5.81104,3.38379c0.08789,2.27227 -0.03076,4.48975 0.03955,6.69302c-0.9375,0.571 -4.91455,3.05259 -5.79932,3.37031c-0.73828,-0.3561 -1.41504,-0.74868 -2.12695,-1.15269c-0.56396,-0.30615 -1.24219,-0.74531 -1.80176,-1.0856c-0.66797,-0.33047 -1.32422,-0.77505 -1.95703,-1.17671c0.01758,-2.20854 0.01465,-4.41738 -0.00879,-6.62607z" fill="#f6b230"/><path d="M182.50488,95.10557c1.96582,-1.04897 3.89063,-2.17412 5.77002,-3.3728c0.08789,2.27227 -0.03076,4.48975 0.03955,6.69302c-0.9375,0.571 -4.91455,3.05259 -5.79932,3.37031z" fill="#ed8039"/><path d="M82.50381,58.9686l3.05493,0.00308l-0.01816,19.88643c3.49395,0.06255 7.19224,-0.00439 10.70171,-0.01304l-0.00791,2.48525c-4.41094,0.11543 -9.29385,0.00937 -13.74243,0.0082z" fill="#275d35"/><path d="M157.67871,112.20234c-3.92578,0.92344 -7.22021,-0.96401 -6.03809,-5.05181c1.5791,-5.46416 10.08984,-3.25225 7.60254,3.25137c1.63037,1.72822 3.32666,3.45073 4.98047,5.16152c-0.54639,0.53745 -1.09717,1.06992 -1.65381,1.59741z" fill="#ed8039"/><path d="M198.89795,108.8083c-0.80859,-2.49316 -0.52881,-5.11157 2.33643,-5.98711c1.11035,-0.3501 2.31592,-0.22793 3.33398,0.33779c2.14453,1.1748 3.0498,3.64116 1.66113,5.75771c-1.55273,2.36528 -3.3501,2.28501 -5.79785,1.63579c-1.6626,1.7729 -3.19775,3.57349 -4.96143,5.24722c-0.62695,-0.39888 -1.25684,-0.78926 -1.89404,-1.1707c1.62012,-1.77451 3.81738,-4.02393 5.32178,-5.8207z" fill="#f6b230"/><path d="M141.97427,122.40806c-6.05713,-2.86494 -1.97417,-9.51548 2.39502,-8.09458c1.1042,0.36519 2.01138,1.16528 2.51206,2.21528c1.26855,2.64727 -0.17139,4.82358 -2.61724,5.92148l-0.01538,5.03657c-0.84243,-0.0939 -1.48389,-0.11982 -2.31079,0.14385z" fill="#9cbf54"/><path d="M99.32432,64.78154l2.96602,0.01948l0.01846,16.54409l-2.95137,-0.00366z" fill="#275d35"/><path d="M193.5542,160.65234c0.74854,0.25195 1.35791,0.52734 1.83252,1.17041c-1.5791,1.67578 -4.77686,4.72705 -6.06006,6.35596c-0.54932,0.01611 -1.50293,-0.80566 -1.9292,-1.16602c1.45459,-1.53223 5.08887,-5.01123 6.15674,-6.36035z" fill="#458e52"/><path d="M100.37021,58.61206c0.93267,-0.23804 1.88394,0.31509 2.13838,1.24321c0.25459,0.92813 -0.28154,1.88921 -1.20498,2.16021c-0.61216,0.17959 -1.27368,0.01479 -1.72998,-0.43096c-0.45645,-0.44575 -0.63677,-1.10303 -0.47153,-1.71929c0.16509,-0.61626 0.64995,-1.09541 1.26812,-1.25317z" fill="#275d35"/></g></svg></svg>